<?xml version="1.0" encoding="utf-8"?>
<!-- Generator: Adobe Illustrator 16.0.0, SVG Export Plug-In . SVG Version: 6.00 Build 0)  -->
<!DOCTYPE svg PUBLIC "-//W3C//DTD SVG 1.1//EN" "http://www.w3.org/Graphics/SVG/1.1/DTD/svg11.dtd">
<svg version="1.1" id="Layer_1" xmlns="http://www.w3.org/2000/svg" xmlns:xlink="http://www.w3.org/1999/xlink" x="0px" y="0px"
	 width="40px" height="40px" viewBox="0 0 40 40" enable-background="new 0 0 40 40" xml:space="preserve">
<g>
	<g transform="matrix( 1, 0, 0, 1, 0,0) ">
		<g>
			<g id="Layer0_35_FILL">
				<path fill="#1A6DAB" d="M12.9,1.25c-2.6,0.967-4.95,2.5-7.05,4.601C1.95,9.75,0,14.467,0,20s1.95,10.233,5.85,14.101
					C9.783,38.033,14.5,40,20,40c5.533,0,10.25-1.967,14.15-5.899C38.051,30.233,40,25.533,40,20S38.051,9.75,34.15,5.851
					c-2.1-2.101-4.434-3.634-7-4.601C24.949,0.417,22.566,0,20,0C17.466,0,15.1,0.417,12.9,1.25z"/>
			</g>
		</g>
	</g>
	<g transform="matrix( 0.3615875244140625, 0, 0, 0.3615875244140625, -98.1,641.4) ">
		<g>
			<g id="Layer0_35_MEMBER_0_FILL">
				<path fill="#FFFFFF" d="M334.55-1737.217c-3.668-1.801-7.782-2.701-12.349-2.701c-3.334,0-7.166,1.583-11.5,4.751
					c-3.334,2.401-6.333,5.183-9,8.351c-1.433,0.564-3.7,1.982-6.801,4.248c-3.966,2.933-5.95,5.25-5.95,6.952
					c0,1.032,0.25,2.05,0.751,3.049c2.066-0.567,3.866-0.983,5.399-1.25c1.5-0.267,2.267-0.316,2.301-0.151
					c0.1,0.435-2.201,1.334-6.9,2.701c1.633,2.066,4.2,3.816,7.7,5.25c2.667,1.334,6.217,2.366,10.65,3.1
					c-0.4,2.433,0.184,4.183,1.75,5.25c1.199,0.832,2.616,0.951,4.25,0.348c1.633-0.564,3.033-1.683,4.2-3.349
					c0.267-0.332,0.517-0.751,0.749-1.25c2.467,0.167,4.601,0.235,6.401,0.2c3.202-0.332,6.086-1.115,8.652-2.35
					c0.897-0.432,3.349-1.834,7.346-4.2c2.901-1.734,5.418-2.884,7.551-3.449l0.151,0.049c1.766,0.835,4.181,2.234,7.249,4.2
					c2.501,1.067,4.553,0.267,6.152-2.398c1.097-1.901,1.367-4.751,0.799-8.551c0.567-3.8,0.297-6.649-0.799-8.551
					c-1.599-2.701-3.651-3.516-6.152-2.45c-3.068,1.999-5.483,3.417-7.249,4.251l-0.6,0.249c-1.134-0.3-2.852-0.883-5.153-1.75
					l-0.4-0.149c-0.6-1.402-1.215-2.585-1.847-3.552C340.599-1733.168,338.152-1735.451,334.55-1737.217 M320.35-1717.067
					c0,1.966-0.633,3.732-1.9,5.299c-1.267,1.499-2.883,2.517-4.851,3.049c2.633-2.198,3.95-4.983,3.95-8.348
					c0-3.368-1.317-6.15-3.95-8.351c1.967,0.532,3.584,1.55,4.851,3.049C319.717-1720.802,320.35-1719.035,320.35-1717.067
					 M303.65-1717.218c-0.6-0.567-0.901-1.267-0.901-2.099c0-0.802,0.301-1.485,0.901-2.05c0.567-0.602,1.25-0.902,2.05-0.902
					c0.833,0,1.533,0.3,2.1,0.902c0.567,0.565,0.851,1.248,0.851,2.05c0,0.832-0.284,1.531-0.851,2.099
					c-0.567,0.567-1.267,0.851-2.1,0.851C304.901-1716.367,304.217-1716.651,303.65-1717.218z"/>
			</g>
		</g>
	</g>
</g>
</svg>
